<svg xmlns="http://www.w3.org/2000/svg" viewBox="0 0 22 22"><defs><style>.cls-1{fill:#15ba38;}</style></defs><title>答对_1</title><g id="图层_2" data-name="图层 2"><g id="图层_1-2" data-name="图层 1"><path class="cls-1" d="M21.89,9.49H20.14A10.87,10.87,0,0,1,20.27,11,9.27,9.27,0,1,1,11,1.76a9,9,0,0,1,3.49.68V.58A11.11,11.11,0,0,0,11,0,10.81,10.81,0,0,0,6.72.87,10.46,10.46,0,0,0,3.23,3.23,10.91,10.91,0,0,0,0,11a10.81,10.81,0,0,0,.87,4.28,10.47,10.47,0,0,0,2.36,3.48A11,11,0,0,0,11,22a10.81,10.81,0,0,0,4.28-.87,10.46,10.46,0,0,0,3.49-2.36,10.78,10.78,0,0,0,2.36-3.48A10.92,10.92,0,0,0,22,11,9.72,9.72,0,0,0,21.89,9.49Z"/><path class="cls-1" d="M5.31,11.14l1.19-1,2.75,2.05a36.23,36.23,0,0,1,7-5.87l.46.55a29.36,29.36,0,0,0-6.62,8.75Z"/></g></g></svg>