<svg xmlns="http://www.w3.org/2000/svg" viewBox="0 0 22 22"><defs><style>.cls-1{fill:#f81804;}</style></defs><title>答错</title><g id="图层_2" data-name="图层 2"><g id="图层_1-2" data-name="图层 1"><path class="cls-1" d="M21.89,9.49H20.14A10.87,10.87,0,0,1,20.27,11,9.27,9.27,0,1,1,11,1.76a9,9,0,0,1,3.49.68V.58A11.11,11.11,0,0,0,11,0,10.81,10.81,0,0,0,6.72.87,10.46,10.46,0,0,0,3.23,3.23,10.91,10.91,0,0,0,0,11a10.81,10.81,0,0,0,.87,4.28,10.47,10.47,0,0,0,2.36,3.48A11,11,0,0,0,11,22a10.81,10.81,0,0,0,4.28-.87,10.46,10.46,0,0,0,3.49-2.36,10.78,10.78,0,0,0,2.36-3.48A10.92,10.92,0,0,0,22,11,9.72,9.72,0,0,0,21.89,9.49ZM6.88,6,6,6.74a33.17,33.17,0,0,1,4.31,3.83c-2,2-3.49,3.9-4.31,4.66l1.68,1.39a26,26,0,0,1,3.63-5,25.42,25.42,0,0,1,3.62,5s1.63-1.73,1.78-1.47c-.63-.71-2.15-2.75-4.22-4.85A33.32,33.32,0,0,1,16.41,6.9L16,6.19a19.25,19.25,0,0,0-4.48,3.22A24.17,24.17,0,0,0,6.88,6Z"/></g></g></svg>