<svg xmlns="http://www.w3.org/2000/svg" viewBox="0 0 22 21.1"><defs><style>.cls-1{fill:#409dff;}</style></defs><title>返回_2</title><g id="图层_2" data-name="图层 2"><g id="图层_1-2" data-name="图层 1"><path class="cls-1" d="M7.36,14.73a1,1,0,0,1-.7-.29L.29,8.07a1,1,0,0,1,0-1.41L6.66.29a1,1,0,0,1,1.41,0,1,1,0,0,1,0,1.42L2.41,7.36,8.07,13a1,1,0,0,1-.71,1.71Z"/><path class="cls-1" d="M20.12,6.36H3a1,1,0,1,0,0,2H20V19.1H14.88a1,1,0,0,0,0,2h5.24A1.88,1.88,0,0,0,22,19.22v-11A1.88,1.88,0,0,0,20.12,6.36Z"/><rect class="cls-1" x="7.98" y="19.1" width="5" height="2" rx="1"/></g></g></svg>