<svg xmlns="http://www.w3.org/2000/svg" viewBox="0 0 22 22"><defs><style>.cls-1{fill:#409eff;}</style></defs><title>问号</title><g id="图层_2" data-name="图层 2"><g id="图层_1-2" data-name="图层 1"><path class="cls-1" d="M21.89,9.49H20.14A10.87,10.87,0,0,1,20.27,11,9.27,9.27,0,1,1,11,1.76a9,9,0,0,1,3.49.68V.58A11.11,11.11,0,0,0,11,0,10.81,10.81,0,0,0,6.72.87,10.46,10.46,0,0,0,3.23,3.23,10.91,10.91,0,0,0,0,11a10.81,10.81,0,0,0,.87,4.28,10.47,10.47,0,0,0,2.36,3.48A11,11,0,0,0,11,22a10.81,10.81,0,0,0,4.28-.87,10.46,10.46,0,0,0,3.49-2.36,10.78,10.78,0,0,0,2.36-3.48A10.92,10.92,0,0,0,22,11,9.72,9.72,0,0,0,21.89,9.49Z"/><path class="cls-1" d="M10.15,15.6v1.66h1.72V15.6Zm4.42-5.78a2.85,2.85,0,0,0,.37-1.43,3,3,0,0,0-1.06-2.31,4.18,4.18,0,0,0-2.86-1A4.06,4.06,0,0,0,8.29,6,3.87,3.87,0,0,0,7.06,8.58l1.54.17a3.08,3.08,0,0,1,.84-1.84A2.29,2.29,0,0,1,11,6.32,2.33,2.33,0,0,1,12.71,7a2,2,0,0,1,.69,1.5,1.71,1.71,0,0,1-.24.88,5.28,5.28,0,0,1-1,1.07,11.4,11.4,0,0,0-1.07,1,3.2,3.2,0,0,0-.59,1,3.75,3.75,0,0,0-.25,1.49c0,.1,0,.25,0,.44H11.7a5.21,5.21,0,0,1,.12-1.27,2.26,2.26,0,0,1,.33-.7,7.93,7.93,0,0,1,1-.93,6.61,6.61,0,0,0,1.46-1.6Z"/></g></g></svg>